{"title":"The.Walk.2015.BRRiP.XViD.AC3.5.1.ReLeNTLesS","uid":13099465,"size":1801879791,"categoryP":"video","categoryS":"movies","magnet":"?xt=urn:btih:4e8b7ac49977957c6517e8f38765566439cac1eb&amp;dn=The.Walk.2015.BRRiP.XViD.AC3.5.1.ReLeNTLesS&amp;tr=udp%3A%2F%2Ftracker.leechers-paradise.org%3A6969&amp;tr=udp%3A%2F%2Fzer0day.ch%3A1337&amp;tr=udp%3A%2F%2Fopen.demonii.com%3A1337&amp;tr=udp%3A%2F%2Ftracker.coppersurfer.tk%3A6969&amp;tr=udp%3A%2F%2Fexodus.desync.com%3A6969","seeders":0,"leechers":0,"uploader":"TvTeam","files":4,"time":1451205083,"description":"------------------------------------------------------------------------\r\n\r  https://www.torrenting.com\r\n\r\nSign up is OPEN - for time being. Come and have fun.\r\n\r\n------------------------------------------------------------------------P0STER\r\n[img]http://i.imgur.com/l1N9WmY.png[/img]\r\n\r\niMDB: http://www.imdb.com/title/tt3488710/\r\n\r\nGeneral\r\nComplete name               : The.Walk.2015.BRRiP.XViD.AC3.5.1.ReLeNTLesS.avi\r\nFormat                      : AVI\r\nFormat/Info                 : Audio Video Interleave\r\nFile size                   : 1.67 GiB\r\nDuration                    : 2h 3mn\r\nOverall bit rate            : 1 936 Kbps\r\n\r\nVideo\r\nID                          : 0\r\nFormat                      : MPEG-4 Visual\r\nFormat profile              : Advanced   \r\nFormat settings, BVOP       : 1\r\nFormat settings, QPel       : No\r\nFormat settings, GMC        : No warppoints\r\nFormat settings, Matrix     : Default (H.263)\r\nCodec ID                    : XVID\r\nCodec ID/Hint               : XviD\r\nDuration                    : 2h 3mn\r\nBit rate                    : 1 704 Kbps\r\nWidth                       : 720 pixels\r\nHeight                      : 304 pixels\r\nDisplay aspect ratio        : 2.35:1\r\nFrame rate                  : 23.976 (24000/1001) fps\r\nColor space                 : YUV\r\nChroma subsampling          : 4:2:0\r\nBit depth                   : 8 bits\r\nScan type                   : Progressive\r\nCompression mode            : Lossy\r\nBits/(Pixel*Frame)          : 0.325\r\nStream size                 : 1.47 GiB (88%)\r\nWriting library             : XviD 67\r\n\r\nAudio\r\nID                          : 1\r\nFormat                      : AC-3\r\nFormat/Info                 : Audio Coding 3\r\nMode extension              : CM (complete main)\r\nFormat settings, Endianness : Big\r\nCodec ID                    : 2000\r\nDuration                    : 2h 3mn\r\nBit rate mode               : Constant\r\nBit rate                    : 224 Kbps\r\nChannel(s)                  : 6 channels\r\nChannel positions           : Front: L C R, Side: L R, LFE\r\nSampling rate               : 48.0 KHz\r\nFrame rate                  : 31.250 fps (1536 spf)\r\nCompression mode            : Lossy\r\nStream size                 : 197 MiB (12%)\r\nAlignment                   : Aligned on interleaves\r\nInterleave, duration        : 64 ms (1.53 video frames)\r\nInterleave, preload duratio : 192 ms\r\nTitle                       : The.Walk.2015.ReLeNTLesS.audio.AC3.5.1. English\r\nSample Included             : Yes\r\nSubtitles                   : Hardcoded for None English Parts (see screens)\r\nSource                      : SPARKS Thanks\r\n\r\nPL0T\r\nIn 1974, high-wire artist Philippe Petit recruits a team of people to help him realize his dream: to walk the immense void between the World Trade Center towers.\r\n\r\nCAST\r\nDirector: Robert Zemeckis\r\nWriters: Robert Zemeckis (screenplay), Christopher Browne (screenplay) \r\nStars: Joseph Gordon-Levitt, Charlotte Le Bon, Guillaume Baillargeon\r\n\r\nN0TE\r\nResized, Degrained and sharpened, Hardcoded English subtitles for none English parts, done audio and muxed.\r\n\r\nSCREENS\r\n[img]http://i.imgur.com/Ab9s4Wu.png[/img]\r\n[img]http://i.imgur.com/2ovs47C.png[/img]\r\n[img]http://i.imgur.com/e0eEKH2.png[/img]\r\n[img]http://i.imgur.com/YuhR4jl.png[/img]\r\n[img]http://i.imgur.com/Qc9NWOz.png[/img]\r\n[img]http://i.imgur.com/10K78C3.png[/img]\r\n[img]http://i.imgur.com/p5SyRwe.png[/img]\r\n[img]http://i.imgur.com/WkRF3XJ.png[/img]\r\n\r\nTRAiLER\r\n\r\nGREETZ\r\n\r\nHIVE-CM8, Blackjesus, M0RPH, M00SE, MiLLENiUM,\r\n\r\nMANiX, TiTAN, Anonymous, TuX, \r\n\r\nACAB, KingStoner, FooKas, 4PlayHD, \r\n\r\nSoZE, GodFather, Cld.... \r\n\r\nKeep up the good work guyz","torrent":{"xt":"urn:btih:4e8b7ac49977957c6517e8f38765566439cac1eb","amp;dn":"The.Walk.2015.BRRiP.XViD.AC3.5.1.ReLeNTLesS","amp;tr":["udp%3A%2F%2Ftracker.leechers-paradise.org%3A6969","udp%3A%2F%2Fzer0day.ch%3A1337","udp%3A%2F%2Fopen.demonii.com%3A1337","udp%3A%2F%2Ftracker.coppersurfer.tk%3A6969","udp%3A%2F%2Fexodus.desync.com%3A6969"],"infoHash":"4e8b7ac49977957c6517e8f38765566439cac1eb","infoHashBuffer":{"type":"Buffer","data":[78,139,122,196,153,119,149,124,101,23,232,243,135,101,86,100,57,202,193,235]},"announce":[],"urlList":[]}}